# xmcd
#
# Track frame offsets: 
#        150
#        24074
#        38718
#        54585
#        70920
#        88624
#        109106
#        134145
#        147733
#        168477
#        193870
#        213436
#        229946
#        250172
#        272648
#        301143
#        325969
#
# Disc length: 4603 seconds
#
# Revision: 5
# Processed by: cddbd v1.5.2PL0 Copyright (c) Steve Scherf et al.
# Submitted via: ExactAudioCopyFreeDBPlugin 1.0
#
DISCID=fb11f911
DTITLE=Terence Trent D'Arby - Sign Your Name - The Best Of Terence Tre
DTITLE=nt D'Arby - CD 1
DYEAR=1995
DGENRE=R&B
TTITLE0=If You All Get To Heaven
TTITLE1=If You Let Me Stay
TTITLE2=Wishing Well
TTITLE3=I'll Never Turn My Back On You
TTITLE4=Dance Little Sister
TTITLE5=Seven More Days
TTITLE6=Let's Go Forward
TTITLE7=Rain
TTITLE8=Sign Your Name
TTITLE9=As Yet Untitled
TTITLE10=Who's Lovin' You
TTITLE11=It Feels So Go To Love Somebody Like You
TTITLE12=To Know Someone Deeply Is To Know Someone Softly
TTITLE13=This Side Of Love
TTITLE14=I Don't Want To Bring Your Gods Down
TTITLE15=Do You Love Me Like You Say?
TTITLE16=Delicate
EXTD=
EXTT0=
EXTT1=
EXTT2=
EXTT3=
EXTT4=
EXTT5=
EXTT6=
EXTT7=
EXTT8=
EXTT9=
EXTT10=
EXTT11=
EXTT12=
EXTT13=
EXTT14=
EXTT15=
EXTT16=
PLAYORDER=
